<?xml version="1.0" encoding="UTF-8"?>
<!DOCTYPE svg PUBLIC "-//W3C//DTD SVG 1.1//EN" "http://www.w3.org/Graphics/SVG/1.1/DTD/svg11.dtd">
<!-- Creator: CorelDRAW X8 -->
<svg xmlns="http://www.w3.org/2000/svg" xml:space="preserve" width="93.1332mm" height="93.1332mm" version="1.1" style="shape-rendering:geometricPrecision; text-rendering:geometricPrecision; image-rendering:optimizeQuality; fill-rule:evenodd; clip-rule:evenodd"
viewBox="0 0 631 631"
 xmlns:xlink="http://www.w3.org/1999/xlink">
 <defs>
  <style type="text/css">
   <![CDATA[
    .fil1 {fill:#FEFEFE}
    .fil0 {fill:#0661A9}
   ]]>
  </style>
 </defs>
 <g id="Warstwa_x0020_1">
  <metadata id="CorelCorpID_0Corel-Layer"/>
  <g id="_2190646544304">
   <path class="fil0" d="M315 0c175,0 316,141 316,315 0,175 -141,316 -316,316 -174,0 -315,-141 -315,-316 0,-174 141,-315 315,-315z"/>
   <path class="fil1" d="M458 129l0 22 -83 0 0 -22 83 0zm-35 47l-48 0 0 21 48 0 0 -21zm-48 67l83 0 0 -21 -83 0 0 21zm48 25l-48 0 0 22 48 0 0 -22zm-48 68l83 0 0 -21 -83 0 0 21zm13 121c0,60 -48,108 -107,108 -60,0 -108,-48 -108,-108 0,-38 20,-73 53,-93l0 -244c0,-30 25,-54 55,-54 30,0 54,24 54,54l0 244c33,20 53,55 53,93zm-21 0c0,-32 -18,-62 -47,-77l-6 -3 0 -257c0,-18 -15,-33 -33,-33 -19,0 -34,15 -34,33l0 257 -5 3c-30,15 -48,45 -48,77 0,48 39,87 87,87 47,0 86,-39 86,-87zm-18 0c0,38 -31,69 -68,69 -38,0 -69,-31 -69,-69 0,-31 21,-58 51,-66l4 -1 0 -236 27 0 0 236 4 1c30,8 51,35 51,66zm-65 -46c-2,-7 -9,-12 -16,-10 -26,6 -45,29 -45,55 0,8 7,14 14,14 8,0 14,-6 14,-14 0,-13 9,-25 23,-28 7,-2 12,-9 10,-17z"/>
  </g>
 </g>
</svg>
