<?xml version="1.0" encoding="UTF-8"?>
<!DOCTYPE svg PUBLIC "-//W3C//DTD SVG 1.1//EN" "http://www.w3.org/Graphics/SVG/1.1/DTD/svg11.dtd">
<!-- Creator: CorelDRAW X8 -->
<svg xmlns="http://www.w3.org/2000/svg" xml:space="preserve" width="413.173mm" height="413.173mm" version="1.1" style="shape-rendering:geometricPrecision; text-rendering:geometricPrecision; image-rendering:optimizeQuality; fill-rule:evenodd; clip-rule:evenodd"
viewBox="0 0 64726 64726"
 xmlns:xlink="http://www.w3.org/1999/xlink">
 <defs>
  <style type="text/css">
   <![CDATA[
    .fil1 {fill:#FEFEFE}
    .fil0 {fill:#ED1D24}
   ]]>
  </style>
 </defs>
 <g id="Warstwa_x0020_1">
  <metadata id="CorelCorpID_0Corel-Layer"/>
  <g id="_2231238501984">
   <path class="fil0" d="M32363 0c17873,0 32363,14489 32363,32363 0,17873 -14490,32363 -32363,32363 -17874,0 -32363,-14490 -32363,-32363 0,-17874 14489,-32363 32363,-32363z"/>
   <path class="fil1" d="M47775 35593l-12416 -20590c-629,-1044 -1778,-1693 -2997,-1693 -1220,0 -2368,649 -2998,1693l-15982 26505c-651,1079 -670,2431 -50,3528 620,1098 1787,1779 3048,1779l11012 0 0 -2536 -11012 0c-347,0 -669,-188 -839,-490 -171,-302 -166,-674 13,-971l15983 -26505c173,-288 489,-466 825,-466 335,0 652,178 825,466l11625 19280 2963 0z"/>
   <path class="fil1" d="M32369 23228c-1322,0 -2353,709 -2353,1966 0,3837 451,9350 451,13187 0,999 871,1418 1902,1418 774,0 1870,-419 1870,-1418 0,-3837 451,-9350 451,-13187 0,-1257 -1063,-1966 -2321,-1966z"/>
   <path class="fil1" d="M32401 42024c-1418,0 -2482,1128 -2482,2482 0,1322 1064,2483 2482,2483 1322,0 2451,-1161 2451,-2483 0,-1354 -1129,-2482 -2451,-2482z"/>
  </g>
 </g>
</svg>
