<?xml version="1.0" encoding="iso-8859-1"?>
<!-- Generator: Adobe Illustrator 16.0.0, SVG Export Plug-In . SVG Version: 6.00 Build 0)  -->
<!DOCTYPE svg PUBLIC "-//W3C//DTD SVG 1.1//EN" "http://www.w3.org/Graphics/SVG/1.1/DTD/svg11.dtd">
<svg version="1.1" id="Capa_1" xmlns="http://www.w3.org/2000/svg" xmlns:xlink="http://www.w3.org/1999/xlink" x="0px" y="0px"
	 width="186.103px" height="186.103px" viewBox="0 0 186.103 186.103" style="enable-background:new 0 0 186.103 186.103;"
	 xml:space="preserve">
<g>
	<path d="M39.576,23.011L28.074,11.499L39.576,0l11.5,11.507L39.576,23.011z M53.62,37.049l11.5-11.503L53.611,14.038L42.112,25.537
		L53.62,37.049z M67.642,51.072l11.499-11.499L67.634,28.066L56.13,39.567L67.642,51.072z M81.667,65.103l11.503-11.499L81.667,42.1
		L70.168,53.611L81.667,65.103z M37.057,25.537L25.538,14.038l-11.5,11.499l11.507,11.512L37.057,25.537z M51.075,39.573
		L39.567,28.066L28.061,39.573l11.507,11.507L51.075,39.573z M53.604,42.1L42.092,53.619l11.511,11.507l11.501-11.507L53.604,42.1z
		 M11.508,28.074l-11.5,11.507l11.519,11.512l11.508-11.512L11.508,28.074z M14.038,53.611l11.507,11.507l11.52-11.507
		l-11.511-11.52L14.038,53.611z M51.083,67.633l-11.507-11.52l-11.507,11.52l11.507,11.507L51.083,67.633z M65.105,81.643
		L53.604,70.144L42.092,81.651l11.505,11.512L65.105,81.643z M132.5,115.933l11.497-11.501L132.5,92.926l-11.501,11.506
		L132.5,115.933z M146.53,129.959l11.497-11.497l-11.514-11.518l-11.501,11.501L146.53,129.959z M160.563,143.989l11.502-11.498
		l-11.502-11.493l-11.505,11.501L160.563,143.989z M174.573,135.004l-11.501,11.51l11.521,11.513l11.501-11.497L174.573,135.004z
		 M105.683,108.511l-21.08,21.083c-3.085,3.082-8.137,3.094-11.231,0l-7.011-7.041l-16.847,16.852l-2.809-2.806l16.855-16.843
		l-7.035-7.029c-3.094-3.098-3.085-8.159,0-11.24l21.067-21.073l-5.61-5.631l-4.348,4.358l-11.503-11.5l11.503-11.519l11.499,11.511
		l-4.35,4.346l5.623,5.624l21.077-21.071c3.098-3.102,8.147-3.102,11.236,0l16.859,16.845c3.09,3.094,3.09,8.143,0,11.233
		l-21.091,21.079l5.635,5.627l4.355-4.372l11.506,11.501l-11.506,11.529l-11.501-11.505l4.348-4.364L105.683,108.511z
		 M112.162,61.58c-2.77-2.779-7.338-2.779-10.106,0l-40.443,40.442c-2.779,2.777-2.779,7.346,0,10.123L112.162,61.58z
		 M120.99,132.491l11.518,11.498l11.505-11.498l-11.505-11.518L120.99,132.491z M158.027,146.514l-11.497-11.51l-11.518,11.51
		l11.518,11.513L158.027,146.514z M149.042,160.556l11.521,11.518l11.502-11.518l-11.502-11.506L149.042,160.556z M104.439,120.998
		l-11.513,11.514l11.513,11.509l11.502-11.521L104.439,120.998z M118.454,135.004l-11.498,11.525l11.498,11.497l11.517-11.497
		L118.454,135.004z M132.483,149.034l-11.501,11.521l11.501,11.501l11.514-11.501L132.483,149.034z M135.021,174.577l11.518,11.525
		l11.497-11.525l-11.497-11.497L135.021,174.577z M41.964,144.129c-4.412-4.408-5.678-10.563-4.398-16.262l-5.354,1.803
		c-0.613,6.44,1.256,13.076,6.193,18.014c4.938,4.938,11.574,6.809,18.032,6.212l1.783-5.383
		C52.543,149.815,46.382,148.545,41.964,144.129z M26.826,131.453l-4.907,1.644c0.322,7.879,3.4,15.685,9.387,21.704
		c6,5.995,13.804,9.053,21.684,9.373l1.633-4.905c-7.153,0.061-14.309-2.592-19.767-8.026
		C29.425,145.769,26.764,138.614,26.826,131.453z M17.066,134.708l-4.849,1.623c0.998,9.329,4.885,18.397,12.01,25.531
		c7.137,7.137,16.202,11.016,25.536,12.01l1.627-4.861c-8.618-0.673-17.044-4.115-23.614-10.691
		C21.206,151.755,17.753,143.315,17.066,134.708z"/>
</g>
<g>
</g>
<g>
</g>
<g>
</g>
<g>
</g>
<g>
</g>
<g>
</g>
<g>
</g>
<g>
</g>
<g>
</g>
<g>
</g>
<g>
</g>
<g>
</g>
<g>
</g>
<g>
</g>
<g>
</g>
</svg>
